Coordinates
version=1
nRows=11
nColumns=40
inDegrees=yes

Units are S.I. units (second, meters, Newtons, ...)
If the header above contains a line with 'inDegrees', this indicates whether rotational values are in degrees (yes) or radians (no).

endheader
time	pelvis_tilt	pelvis_list	pelvis_rotation	pelvis_tx	pelvis_ty	pelvis_tz	hip_flexion_r	hip_adduction_r	hip_rotation_r	knee_angle_r	knee_angle_r_beta	ankle_angle_r	subtalar_angle_r	mtp_angle_r	hip_flexion_l	hip_adduction_l	hip_rotation_l	knee_angle_l	knee_angle_l_beta	ankle_angle_l	subtalar_angle_l	mtp_angle_l	lumbar_extension	lumbar_bending	lumbar_rotation	arm_flex_r	arm_add_r	arm_rot_r	elbow_flex_r	pro_sup_r	wrist_flex_r	wrist_dev_r	arm_flex_l	arm_add_l	arm_rot_l	elbow_flex_l	pro_sup_l	wrist_flex_l	wrist_dev_l
      3.93333333	    -13.26615471	     -1.53032861	      2.82765696	     -0.37421180	      1.16157059	      0.03981603	     49.71840359	     -5.67692288	     -1.98984515	     61.37249034	      1.07115203	    -18.33333497	    -13.14345823	      0.00000000	     87.65460480	     -4.83595232	      7.82221836	     95.85762470	      1.67303116	      9.44855084	     -1.35864491	      0.00000000	    -46.63806167	      1.15203640	      2.78228807	     89.35984762	    -15.57635636	     36.64310762	     23.43972669	     86.21999965	      0.00000000	      0.00000000	     89.05643137	     -2.95442384	     29.17947754	     22.35607943	     85.85031850	      0.00000000	      0.00000000
      3.94166667	    -13.21746967	     -2.01596621	      2.92302920	     -0.37444411	      1.16123377	      0.04006978	     50.62891361	     -5.40059804	     -2.16804847	     64.39576027	      1.12391804	    -17.33717786	    -13.54590812	      0.00000000	     86.57637050	     -4.83511842	      8.14460618	     92.93964034	      1.62210273	      8.50842198	     -1.35631587	      0.00000000	    -46.63418955	      1.63142549	      3.11474683	     89.37269527	    -15.59516825	     36.59314179	     23.51733520	     86.04536652	      0.00000000	      0.00000000	     89.05328927	     -2.89443249	     29.12718619	     22.24825637	     85.59556691	      0.00000000	      0.00000000
      3.95000000	    -13.51671258	     -2.09079980	      3.12607659	     -0.37508708	      1.16032843	      0.03969873	     52.22272465	     -5.69745875	     -2.06731795	     67.76286060	      1.18268503	    -16.30389816	    -13.39224278	      0.00000000	     85.55492665	     -4.50413593	      8.08653801	     89.73640100	      1.56619566	      7.30459390	     -1.77406908	      0.00000000	    -46.26539252	      1.90227885	      3.03293120	     89.38014711	    -15.58696396	     36.63096239	     23.52402627	     86.33007924	      0.00000000	      0.00000000	     89.02948360	     -2.88197532	     29.10229277	     22.14295807	     85.77341588	      0.00000000	      0.00000000
      3.95833333	    -13.42459939	     -2.71975305	      3.08353347	     -0.37521933	      1.15977684	      0.04012036	     53.34745973	     -5.20810319	     -2.07893042	     70.99565711	      1.23910797	    -15.31590357	    -13.49672785	      0.00000000	     84.05215308	     -4.69899482	      8.62745703	     86.64640298	      1.51226502	      6.36585298	     -1.73384729	      0.00000000	    -46.27375586	      2.42943105	      3.61286353	     89.38918814	    -15.66494254	     36.60006810	     23.62110787	     86.34450511	      0.00000000	      0.00000000	     89.00433516	     -2.77080597	     29.04460377	     22.00694604	     85.76530712	      0.00000000	      0.00000000
      3.96666667	    -13.33539841	     -3.29081872	      3.05086373	     -0.37524321	      1.15904886	      0.04055856	     54.59705565	     -4.81995533	     -2.08536919	     74.28448890	      1.29650891	    -14.22045292	    -13.41938770	      0.00000000	     82.45321840	     -4.97557289	      9.10999440	     83.41507789	      1.45586776	      5.01990562	     -1.55312615	      0.00000000	    -46.26715817	      2.92387459	      4.05334789	     89.40094622	    -15.64110988	     36.64923351	     23.67601166	     86.37339874	      0.00000000	      0.00000000	     89.06518068	     -2.56178687	     28.60908761	     21.52492499	     85.75568096	      0.00000000	      0.00000000
      3.97500000	    -13.41662732	     -3.98004205	      3.06313120	     -0.37564816	      1.15822452	      0.04116952	     55.99849126	     -4.25056992	     -1.95944966	     77.67529405	      1.35568963	    -12.60632856	    -13.24393730	      0.00000000	     80.84167544	     -5.17303872	      9.78742825	     79.98033286	      1.39592015	      3.83302347	     -1.53748084	      0.00000000	    -46.09415790	      3.52009700	      4.63574179	     89.40274595	    -15.74190143	     36.70087202	     23.78178277	     86.39817660	      0.00000000	      0.00000000	     88.97059888	     -2.57970076	     28.69837858	     21.61495827	     85.80029609	      0.00000000	      0.00000000
      3.98333333	    -13.86726747	     -3.67259242	      3.29004517	     -0.37634651	      1.15637517	      0.04012308	     58.23193395	     -5.13421323	     -1.49085278	     81.24979025	      1.41807636	    -11.05790839	    -11.11818912	      0.00000000	     79.32855120	     -4.73604494	      9.38056654	     76.53532204	      1.33579336	      2.02404460	     -2.44590414	      0.00000000	    -45.48328071	      3.60510339	      4.17562377	     89.38895770	    -15.66415610	     37.07047088	     23.78723866	     86.40743697	      0.00000000	      0.00000000	     88.95475263	     -2.63410341	     28.88353730	     21.32637608	     85.84794560	      0.00000000	      0.00000000
      3.99166667	    -13.65219104	     -4.26323014	      3.09271597	     -0.37610938	      1.15555590	      0.04067333	     59.60374462	     -4.63576211	     -1.38611605	     84.50728930	      1.47493044	     -9.89037868	    -10.73411228	      0.00000000	     77.24035901	     -5.13712604	     10.05095113	     73.27415782	      1.27887531	      0.54685820	     -2.47931698	      0.00000000	    -45.58074035	      4.04297535	      4.79078228	     89.38603475	    -15.69257711	     37.18432543	     23.88256485	     86.39825640	      0.00000000	      0.00000000	     88.89942015	     -2.57658429	     28.80178553	     21.15022492	     85.81373015	      0.00000000	      0.00000000
      4.00000000	    -13.53449499	     -4.99163609	      2.91723352	     -0.37591704	      1.15471467	      0.04113591	     61.09199205	     -4.11250056	     -1.44099837	     87.63507895	      1.52952067	     -8.92139325	    -10.35396759	      0.00000000	     75.21824510	     -5.70323698	     10.68191745	     70.15773122	      1.22448341	     -0.39221749	     -2.48793664	      0.00000000	    -45.59584740	      4.62249148	      5.48823075	     89.38147700	    -15.71983169	     37.24823848	     23.98601834	     86.17591122	      0.00000000	      0.00000000	     88.80397307	     -2.56407347	     28.73959811	     21.08384047	     85.55438094	      0.00000000	      0.00000000
      4.00833333	    -13.53287282	     -5.63954599	      2.95991991	     -0.37609404	      1.15393310	      0.04158233	     62.82798581	     -3.82653826	     -1.49599751	     90.75055186	      1.58389593	     -7.67375654	     -9.76678852	      0.00000000	     73.15796329	     -6.06128792	     11.31457122	     66.81091003	      1.16607036	     -1.77536690	     -2.50063715	      0.00000000	    -45.52004939	      5.25785537	      5.94836025	     89.38579057	    -15.73257648	     37.36431740	     24.10548110	     85.99570536	      0.00000000	      0.00000000	     88.76203376	     -2.54466829	     28.66956977	     20.93975362	     85.32158299	      0.00000000	      0.00000000
      4.01666667	    -13.53348153	     -5.35779455	      3.26825564	     -0.37612981	      1.15288871	      0.04048645	     64.61728846	     -4.73770978	     -0.82734349	     94.01448926	      1.64086238	     -5.26601007	     -6.51133218	      0.00000000	     70.99266630	     -5.58336151	     11.21618159	     63.67917008	      1.11141118	     -4.05343333	     -3.64682560	      0.00000000	    -45.37642759	      5.42235987	      5.50468736	     89.40814913	    -15.70089280	     37.87271235	     24.12848078	     86.34112797	      0.00000000	      0.00000000	     88.73474849	     -2.58372904	     28.63176991	     20.64838785	     85.71541513	      0.00000000	      0.00000000
